<svg xmlns="http://www.w3.org/2000/svg" xmlns:xlink="http://www.w3.org/1999/xlink" viewBox="0 0 1080 1080" width="1080" height="1080" style="width: 100%; height: 100%; transform: translate3d(0,0,0); content-visibility: visible;" preserveAspectRatio="xMidYMid meet"><defs><clipPath id="__lottie_element_2"><rect width="1080" height="1080" x="0" y="0"></rect></clipPath></defs><g clip-path="url(#__lottie_element_2)"><g style="display: block;" transform="matrix(1,0,0,1,110.74395751953125,110.40798950195312)" opacity="1"><g opacity="1" transform="matrix(1,0,0,1,429.52801513671875,429.5140075683594)"><path stroke-linecap="butt" stroke-linejoin="miter" fill-opacity="0" stroke-miterlimit="10" stroke="rgb(221,235,111)" stroke-opacity="1" stroke-width="10" d=" M-0.0010000000474974513,-404.5140075683594 C-0.0010000000474974513,-404.5140075683594 -189.18600463867188,-319.343994140625 -128.64300537109375,-128.5970001220703 C-319.3580017089844,-189.14100646972656 -404.52801513671875,0.01600000075995922 -404.52801513671875,0.01600000075995922 C-404.52801513671875,0.01600000075995922 -319.3580017089844,189.14100646972656 -128.61199951171875,128.5970001220703 C-189.15499877929688,319.3429870605469 0.029999999329447746,404.5140075683594 0.029999999329447746,404.5140075683594 C0.029999999329447746,404.5140075683594 189.1540069580078,319.3429870605469 128.61099243164062,128.5970001220703 C319.35699462890625,189.14100646972656 404.52801513671875,-0.04500000178813934 404.52801513671875,-0.04500000178813934 C404.52801513671875,-0.04500000178813934 319.35699462890625,-189.17100524902344 128.61099243164062,-128.6280059814453 C189.1540069580078,-319.343994140625 -0.0010000000474974513,-404.5140075683594 -0.0010000000474974513,-404.5140075683594z"></path></g></g><g style="display: block;" transform="matrix(1,0,0,1,155.68399047851562,155.3480224609375)" opacity="1"><g opacity="1" transform="matrix(1,0,0,1,384.5870056152344,384.5889892578125)"><path stroke-linecap="butt" stroke-linejoin="miter" fill-opacity="0" stroke-miterlimit="10" stroke="rgb(221,235,111)" stroke-opacity="1" stroke-width="10" d=" M286.072998046875,-286.0429992675781 C286.072998046875,-286.0429992675781 92.08499908447266,-359.5880126953125 0,-181.90499877929688 C-92.08399963378906,-359.5880126953125 -286.072998046875,-286.0429992675781 -286.072998046875,-286.0429992675781 C-286.072998046875,-286.0429992675781 -359.5870056152344,-92.08399963378906 -181.9040069580078,0 C-359.5870056152344,92.08399963378906 -286.0419921875,286.0740051269531 -286.0419921875,286.0740051269531 C-286.0419921875,286.0740051269531 -92.08399963378906,359.5889892578125 0,181.90499877929688 C92.08499908447266,359.5889892578125 286.072998046875,286.0429992675781 286.072998046875,286.0429992675781 C286.072998046875,286.0429992675781 359.5870056152344,92.08399963378906 181.9040069580078,0 C359.5870056152344,-92.08399963378906 286.072998046875,-286.0429992675781 286.072998046875,-286.0429992675781z"></path></g></g><g style="display: block;" transform="matrix(1,0,0,1,441.9700012207031,152.260009765625)" opacity="1"><g opacity="1" transform="matrix(1,0,0,1,98.28399658203125,87.74600219726562)"><path fill="rgb(79,108,102)" fill-opacity="1" d=" M0.01600000075995922,87.49500274658203 C-25.344999313354492,48.090999603271484 -58.202999114990234,19.548999786376953 -98.03500366210938,2.38700008392334 C-66.76899719238281,-48.887001037597656 -17.360000610351562,-78.28700256347656 0.01600000075995922,-87.49500274658203 C17.36199951171875,-78.25599670410156 66.86100006103516,-48.702999114990234 98.03500366210938,2.38700008392334 C58.26499938964844,19.548999786376953 25.408000946044922,48.090999603271484 0.01600000075995922,87.49500274658203z"></path></g></g><g style="display: block;" transform="matrix(1,0,0,1,681.0540161132812,253.85800170898438)" opacity="1"><g opacity="1" transform="matrix(1,0,0,1,76.625,72.64800262451172)"><path fill="rgb(79,108,102)" fill-opacity="1" d=" M62.33300018310547,72.39800262451172 C37.49100112915039,62.547000885009766 11.27299976348877,57.590999603271484 -15.862000465393066,57.590999603271484 C-32.566001892089844,57.590999603271484 -49.75899887084961,59.487998962402344 -67.22799682617188,63.250999450683594 C-57.314998626708984,17.422000885009766 -60.375,-25.98900032043457 -76.375,-66.30999755859375 C-59.64099884033203,-70.3479995727539 -41.83599853515625,-72.39800262451172 -23.235000610351562,-72.39800262451172 C13.230999946594238,-72.39800262451172 43.57899856567383,-64.4739990234375 56.55099868774414,-60.52799987792969 C62.301998138427734,-41.68299865722656 76.375,14.180000305175781 62.33300018310547,72.39800262451172z"></path></g></g><g style="display: block;" transform="matrix(1,0,0,1,752.45703125,441.6650085449219)" opacity="1"><g opacity="1" transform="matrix(1,0,0,1,87.74600219726562,98.28500366210938)"><path fill="rgb(79,108,102)" fill-opacity="1" d=" M-2.3559999465942383,98.03500366210938 C-19.54800033569336,58.23400115966797 -48.06100082397461,25.408000946044922 -87.49600219726562,0.01600000075995922 C-48.09199905395508,-25.375999450683594 -19.54800033569336,-58.23400115966797 -2.3559999465942383,-98.03500366210938 C48.67300033569336,-66.83000183105469 78.22599792480469,-17.422000885009766 87.49600219726562,-0.014999999664723873 C78.22599792480469,17.33099937438965 48.67300033569336,66.80000305175781 -2.3559999465942383,98.03500366210938z"></path></g></g><g style="display: block;" transform="matrix(1,0,0,1,681.083984375,680.7160034179688)" opacity="1"><g opacity="1" transform="matrix(1,0,0,1,76.65599822998047,72.63300323486328)"><path fill="rgb(79,108,102)" fill-opacity="1" d=" M-23.266000747680664,72.38300323486328 C-41.86600112915039,72.38300323486328 -59.67100143432617,70.33300018310547 -76.40599822998047,66.29499816894531 C-60.40599822998047,26.003999710083008 -57.34600067138672,-17.406999588012695 -67.28800201416016,-63.23500061035156 C-49.81999969482422,-59.47200012207031 -32.62699890136719,-57.57500076293945 -15.92300033569336,-57.57500076293945 C11.213000297546387,-57.57500076293945 37.43000030517578,-62.5620002746582 62.27199935913086,-72.38300323486328 C76.40599822998047,-14.01200008392334 62.27199935913086,41.698001861572266 56.4900016784668,60.483001708984375 C43.58000183105469,64.45899963378906 13.201000213623047,72.38300323486328 -23.266000747680664,72.38300323486328z"></path></g></g><g style="display: block;" transform="matrix(1,0,0,1,441.9700012207031,752.093994140625)" opacity="1"><g opacity="1" transform="matrix(1,0,0,1,98.31600189208984,87.74500274658203)"><path fill="rgb(79,108,102)" fill-opacity="1" d=" M0.01600000075995922,87.49500274658203 C-17.391000747680664,78.2249984741211 -66.86100006103516,48.67300033569336 -98.06600189208984,-2.3559999465942383 C-58.263999938964844,-19.548999786376953 -25.406999588012695,-48.09199905395508 -0.014999999664723873,-87.49500274658203 C25.37700080871582,-48.0620002746582 58.23400115966797,-19.548999786376953 98.06600189208984,-2.3559999465942383 C66.86100006103516,48.702999114990234 17.39299964904785,78.25599670410156 0.01600000075995922,87.49500274658203z"></path></g></g><g style="display: block;" transform="matrix(1,0,0,1,246.239990234375,680.7479858398438)" opacity="1"><g opacity="1" transform="matrix(1,0,0,1,76.60900115966797,72.63300323486328)"><path fill="rgb(79,108,102)" fill-opacity="1" d=" M23.250999450683594,72.38200378417969 C-13.1850004196167,72.38200378417969 -43.56399917602539,64.45899963378906 -56.505001068115234,60.512001037597656 C-62.25699996948242,41.696998596191406 -76.36000061035156,-14.194000244140625 -62.31800079345703,-72.38200378417969 C-37.47700119018555,-62.53099822998047 -11.256999969482422,-57.57500076293945 15.847999572753906,-57.57500076293945 C32.55099868774414,-57.57500076293945 49.74399948120117,-59.47200012207031 67.21199798583984,-63.23500061035156 C57.29999923706055,-17.408000946044922 60.35900115966797,26.003999710083008 76.35900115966797,66.32499694824219 C59.65599822998047,70.33300018310547 41.85200119018555,72.38200378417969 23.250999450683594,72.38200378417969z"></path></g></g><g style="display: block;" transform="matrix(1,0,0,1,152.59600830078125,441.6650085449219)" opacity="1"><g opacity="1" transform="matrix(1,0,0,1,87.76000213623047,98.28500366210938)"><path fill="rgb(79,108,102)" fill-opacity="1" d=" M2.371000051498413,98.03500366210938 C-48.902000427246094,66.76899719238281 -78.302001953125,17.392000198364258 -87.51000213623047,0.01600000075995922 C-78.27200317382812,-17.361000061035156 -48.71900177001953,-66.83000183105469 2.371000051498413,-98.03500366210938 C19.56399917602539,-58.23400115966797 48.07600021362305,-25.375999450683594 87.51000213623047,0.01600000075995922 C48.10599899291992,25.37700080871582 19.56399917602539,58.23400115966797 2.371000051498413,98.03500366210938z"></path></g></g><g style="display: block;" transform="matrix(1,0,0,1,246.14700317382812,253.85800170898438)" opacity="1"><g opacity="1" transform="matrix(1,0,0,1,76.65499877929688,72.64800262451172)"><path fill="rgb(79,108,102)" fill-opacity="1" d=" M-62.270999908447266,72.39800262451172 C-76.40499877929688,13.996000289916992 -62.303001403808594,-41.7130012512207 -56.520999908447266,-60.49700164794922 C-43.61000061035156,-64.4739990234375 -13.201000213623047,-72.39800262451172 23.266000747680664,-72.39800262451172 C41.86600112915039,-72.39800262451172 59.672000885009766,-70.3479995727539 76.40599822998047,-66.30999755859375 C60.40599822998047,-25.98900032043457 57.34600067138672,17.422000885009766 67.25800323486328,63.250999450683594 C49.790000915527344,59.487998962402344 32.59600067138672,57.590999603271484 15.892999649047852,57.590999603271484 C-11.211999893188477,57.560001373291016 -37.43000030517578,62.547000885009766 -62.270999908447266,72.39800262451172z"></path></g></g><g style="display: block;" transform="matrix(1,0,0,1,365.0910339355469,359.49395751953125)" opacity="1"><g opacity="1" transform="matrix(1,0,0,1,175.17999267578125,175.17999267578125)"><path stroke-linecap="butt" stroke-linejoin="miter" fill-opacity="0" stroke-miterlimit="10" stroke="rgb(221,235,111)" stroke-opacity="1" stroke-width="10" d=" M-0.0010000000474974513,150.17999267578125 C35.02799987792969,37.077999114990234 150.1790008544922,0.0010000000474974513 150.1790008544922,0.0010000000474974513 C150.1790008544922,0.0010000000474974513 99.02799987792969,-97.71199798583984 -0.0010000000474974513,-150.17999267578125 C-99.02999877929688,-97.74299621582031 -150.17999267578125,0.0010000000474974513 -150.17999267578125,0.0010000000474974513 C-150.17999267578125,0.0010000000474974513 -35.060001373291016,37.11000061035156 -0.0010000000474974513,150.17999267578125z"></path></g></g><g style="display: block;" transform="matrix(1,0,0,1,412.7440185546875,402.13397216796875)" opacity="1"><g opacity="1" transform="matrix(1,0,0,1,127.54399871826172,120.79399871826172)"><path fill="rgb(34,71,64)" fill-opacity="1" d=" M-0.017000000923871994,120.54399871826172 C-35.391998291015625,51.766998291015625 -98.2229995727539,17.009000778198242 -127.29399871826172,3.9830000400543213 C-110.05699920654297,-23.006000518798828 -66.72799682617188,-82.6510009765625 -0.01600000075995922,-120.54399871826172 C66.7750015258789,-82.6449966430664 110.07599639892578,-23.023000717163086 127.29399871826172,3.953000068664551 C98.20999908447266,17 35.34600067138672,51.797000885009766 -0.017000000923871994,120.54399871826172z"></path></g></g></g></svg>